<mxfile host="app.diagrams.net" modified="2020-10-01T14:32:58.550Z" agent="5.0 (Macintosh; Intel Mac OS X 10_15_7) AppleWebKit/537.36 (KHTML, like Gecko) Chrome/85.0.4183.121 Safari/537.36" etag="g2GA0xVsrvR4eMrU0m93" version="13.7.7" type="github">
  <diagram id="XvSPUDLUYNMZTPW0N-xw" name="Page-1">
    <mxGraphModel dx="1143" dy="661" grid="1" gridSize="10" guides="1" tooltips="1" connect="1" arrows="1" fold="1" page="1" pageScale="1" pageWidth="827" pageHeight="1169" math="0" shadow="0">
      <root>
        <mxCell id="0" />
        <mxCell id="1" parent="0" />
        <mxCell id="FBpaqkk6B_h8Nh0KUtV6-1" value="123123" style="shape=process;whiteSpace=wrap;html=1;backgroundOutline=1;" parent="1" vertex="1">
          <mxGeometry x="80" y="50" width="120" height="60" as="geometry" />
        </mxCell>
        <mxCell id="FBpaqkk6B_h8Nh0KUtV6-2" value="123123" style="shape=process;whiteSpace=wrap;html=1;backgroundOutline=1;" parent="1" vertex="1">
          <mxGeometry x="90" y="60" width="120" height="60" as="geometry" />
        </mxCell>
        <mxCell id="FBpaqkk6B_h8Nh0KUtV6-3" value="123123" style="shape=process;whiteSpace=wrap;html=1;backgroundOutline=1;" parent="1" vertex="1">
          <mxGeometry x="100" y="70" width="120" height="60" as="geometry" />
        </mxCell>
        <mxCell id="FBpaqkk6B_h8Nh0KUtV6-4" value="123123" style="shape=process;whiteSpace=wrap;html=1;backgroundOutline=1;" parent="1" vertex="1">
          <mxGeometry x="110" y="80" width="120" height="60" as="geometry" />
        </mxCell>
        <mxCell id="FBpaqkk6B_h8Nh0KUtV6-5" value="123123" style="shape=process;whiteSpace=wrap;html=1;backgroundOutline=1;" parent="1" vertex="1">
          <mxGeometry x="120" y="90" width="120" height="60" as="geometry" />
        </mxCell>
        <mxCell id="FBpaqkk6B_h8Nh0KUtV6-6" value="123123" style="shape=process;whiteSpace=wrap;html=1;backgroundOutline=1;" parent="1" vertex="1">
          <mxGeometry x="130" y="100" width="120" height="60" as="geometry" />
        </mxCell>
        <mxCell id="FBpaqkk6B_h8Nh0KUtV6-7" value="123123" style="shape=process;whiteSpace=wrap;html=1;backgroundOutline=1;" parent="1" vertex="1">
          <mxGeometry x="140" y="110" width="120" height="60" as="geometry" />
        </mxCell>
        <mxCell id="FBpaqkk6B_h8Nh0KUtV6-8" value="123123" style="shape=process;whiteSpace=wrap;html=1;backgroundOutline=1;" parent="1" vertex="1">
          <mxGeometry x="150" y="120" width="120" height="60" as="geometry" />
        </mxCell>
        <mxCell id="FBpaqkk6B_h8Nh0KUtV6-9" value="123123" style="shape=process;whiteSpace=wrap;html=1;backgroundOutline=1;" parent="1" vertex="1">
          <mxGeometry x="160" y="130" width="120" height="60" as="geometry" />
        </mxCell>
        <mxCell id="FBpaqkk6B_h8Nh0KUtV6-10" value="123123" style="shape=process;whiteSpace=wrap;html=1;backgroundOutline=1;" parent="1" vertex="1">
          <mxGeometry x="170" y="140" width="120" height="60" as="geometry" />
        </mxCell>
        <mxCell id="FBpaqkk6B_h8Nh0KUtV6-11" value="123123" style="shape=process;whiteSpace=wrap;html=1;backgroundOutline=1;" parent="1" vertex="1">
          <mxGeometry x="180" y="150" width="120" height="60" as="geometry" />
        </mxCell>
        <mxCell id="FBpaqkk6B_h8Nh0KUtV6-12" value="123123" style="shape=process;whiteSpace=wrap;html=1;backgroundOutline=1;" parent="1" vertex="1">
          <mxGeometry x="190" y="160" width="120" height="60" as="geometry" />
        </mxCell>
        <mxCell id="FBpaqkk6B_h8Nh0KUtV6-13" value="123123" style="shape=process;whiteSpace=wrap;html=1;backgroundOutline=1;" parent="1" vertex="1">
          <mxGeometry x="200" y="170" width="120" height="60" as="geometry" />
        </mxCell>
        <mxCell id="FBpaqkk6B_h8Nh0KUtV6-14" value="123123" style="shape=process;whiteSpace=wrap;html=1;backgroundOutline=1;" parent="1" vertex="1">
          <mxGeometry x="210" y="180" width="120" height="60" as="geometry" />
        </mxCell>
        <mxCell id="FBpaqkk6B_h8Nh0KUtV6-15" value="123123" style="shape=process;whiteSpace=wrap;html=1;backgroundOutline=1;" parent="1" vertex="1">
          <mxGeometry x="220" y="190" width="120" height="60" as="geometry" />
        </mxCell>
        <mxCell id="FBpaqkk6B_h8Nh0KUtV6-16" value="123123" style="shape=process;whiteSpace=wrap;html=1;backgroundOutline=1;" parent="1" vertex="1">
          <mxGeometry x="230" y="200" width="120" height="60" as="geometry" />
        </mxCell>
        <mxCell id="FBpaqkk6B_h8Nh0KUtV6-17" value="123123" style="shape=process;whiteSpace=wrap;html=1;backgroundOutline=1;" parent="1" vertex="1">
          <mxGeometry x="240" y="210" width="120" height="60" as="geometry" />
        </mxCell>
        <mxCell id="FBpaqkk6B_h8Nh0KUtV6-18" value="123123" style="shape=process;whiteSpace=wrap;html=1;backgroundOutline=1;" parent="1" vertex="1">
          <mxGeometry x="250" y="220" width="120" height="60" as="geometry" />
        </mxCell>
        <mxCell id="FBpaqkk6B_h8Nh0KUtV6-19" value="123123" style="shape=process;whiteSpace=wrap;html=1;backgroundOutline=1;" parent="1" vertex="1">
          <mxGeometry x="260" y="230" width="120" height="60" as="geometry" />
        </mxCell>
        <mxCell id="FBpaqkk6B_h8Nh0KUtV6-20" value="123123" style="shape=process;whiteSpace=wrap;html=1;backgroundOutline=1;" parent="1" vertex="1">
          <mxGeometry x="270" y="240" width="120" height="60" as="geometry" />
        </mxCell>
        <mxCell id="FBpaqkk6B_h8Nh0KUtV6-21" value="123123" style="shape=process;whiteSpace=wrap;html=1;backgroundOutline=1;" parent="1" vertex="1">
          <mxGeometry x="280" y="250" width="120" height="60" as="geometry" />
        </mxCell>
        <mxCell id="FBpaqkk6B_h8Nh0KUtV6-22" value="123123" style="shape=process;whiteSpace=wrap;html=1;backgroundOutline=1;" parent="1" vertex="1">
          <mxGeometry x="290" y="260" width="120" height="60" as="geometry" />
        </mxCell>
        <mxCell id="FBpaqkk6B_h8Nh0KUtV6-23" value="123123" style="shape=process;whiteSpace=wrap;html=1;backgroundOutline=1;" parent="1" vertex="1">
          <mxGeometry x="300" y="270" width="120" height="60" as="geometry" />
        </mxCell>
        <mxCell id="FBpaqkk6B_h8Nh0KUtV6-24" value="123123" style="shape=process;whiteSpace=wrap;html=1;backgroundOutline=1;" parent="1" vertex="1">
          <mxGeometry x="310" y="280" width="120" height="60" as="geometry" />
        </mxCell>
        <mxCell id="FBpaqkk6B_h8Nh0KUtV6-25" value="123123" style="shape=process;whiteSpace=wrap;html=1;backgroundOutline=1;" parent="1" vertex="1">
          <mxGeometry x="320" y="290" width="120" height="60" as="geometry" />
        </mxCell>
        <mxCell id="FBpaqkk6B_h8Nh0KUtV6-26" value="123123" style="shape=process;whiteSpace=wrap;html=1;backgroundOutline=1;" parent="1" vertex="1">
          <mxGeometry x="330" y="300" width="120" height="60" as="geometry" />
        </mxCell>
        <mxCell id="FBpaqkk6B_h8Nh0KUtV6-27" value="123123" style="shape=process;whiteSpace=wrap;html=1;backgroundOutline=1;" parent="1" vertex="1">
          <mxGeometry x="340" y="310" width="120" height="60" as="geometry" />
        </mxCell>
        <mxCell id="FBpaqkk6B_h8Nh0KUtV6-28" value="123123" style="shape=process;whiteSpace=wrap;html=1;backgroundOutline=1;" parent="1" vertex="1">
          <mxGeometry x="350" y="320" width="120" height="60" as="geometry" />
        </mxCell>
        <mxCell id="FBpaqkk6B_h8Nh0KUtV6-29" value="123123" style="shape=process;whiteSpace=wrap;html=1;backgroundOutline=1;" parent="1" vertex="1">
          <mxGeometry x="360" y="330" width="120" height="60" as="geometry" />
        </mxCell>
        <mxCell id="FBpaqkk6B_h8Nh0KUtV6-30" value="123123" style="shape=process;whiteSpace=wrap;html=1;backgroundOutline=1;" parent="1" vertex="1">
          <mxGeometry x="370" y="340" width="120" height="60" as="geometry" />
        </mxCell>
        <mxCell id="FBpaqkk6B_h8Nh0KUtV6-31" value="123123" style="shape=process;whiteSpace=wrap;html=1;backgroundOutline=1;" parent="1" vertex="1">
          <mxGeometry x="380" y="350" width="120" height="60" as="geometry" />
        </mxCell>
        <mxCell id="FBpaqkk6B_h8Nh0KUtV6-32" value="123123" style="shape=process;whiteSpace=wrap;html=1;backgroundOutline=1;" parent="1" vertex="1">
          <mxGeometry x="390" y="360" width="120" height="60" as="geometry" />
        </mxCell>
        <mxCell id="FBpaqkk6B_h8Nh0KUtV6-33" value="123123" style="shape=process;whiteSpace=wrap;html=1;backgroundOutline=1;" parent="1" vertex="1">
          <mxGeometry x="400" y="370" width="120" height="60" as="geometry" />
        </mxCell>
        <mxCell id="FBpaqkk6B_h8Nh0KUtV6-34" value="123123" style="shape=process;whiteSpace=wrap;html=1;backgroundOutline=1;" parent="1" vertex="1">
          <mxGeometry x="410" y="380" width="120" height="60" as="geometry" />
        </mxCell>
        <mxCell id="FBpaqkk6B_h8Nh0KUtV6-35" value="123123" style="shape=process;whiteSpace=wrap;html=1;backgroundOutline=1;" parent="1" vertex="1">
          <mxGeometry x="90" y="60" width="120" height="60" as="geometry" />
        </mxCell>
        <mxCell id="FBpaqkk6B_h8Nh0KUtV6-36" value="123123" style="shape=process;whiteSpace=wrap;html=1;backgroundOutline=1;" parent="1" vertex="1">
          <mxGeometry x="100" y="70" width="120" height="60" as="geometry" />
        </mxCell>
        <mxCell id="FBpaqkk6B_h8Nh0KUtV6-37" value="123123" style="shape=process;whiteSpace=wrap;html=1;backgroundOutline=1;" parent="1" vertex="1">
          <mxGeometry x="110" y="80" width="120" height="60" as="geometry" />
        </mxCell>
        <mxCell id="FBpaqkk6B_h8Nh0KUtV6-38" value="123123" style="shape=process;whiteSpace=wrap;html=1;backgroundOutline=1;" parent="1" vertex="1">
          <mxGeometry x="120" y="90" width="120" height="60" as="geometry" />
        </mxCell>
        <mxCell id="FBpaqkk6B_h8Nh0KUtV6-39" value="123123" style="shape=process;whiteSpace=wrap;html=1;backgroundOutline=1;" parent="1" vertex="1">
          <mxGeometry x="130" y="100" width="120" height="60" as="geometry" />
        </mxCell>
        <mxCell id="FBpaqkk6B_h8Nh0KUtV6-40" value="123123" style="shape=process;whiteSpace=wrap;html=1;backgroundOutline=1;" parent="1" vertex="1">
          <mxGeometry x="140" y="110" width="120" height="60" as="geometry" />
        </mxCell>
        <mxCell id="FBpaqkk6B_h8Nh0KUtV6-41" value="123123" style="shape=process;whiteSpace=wrap;html=1;backgroundOutline=1;" parent="1" vertex="1">
          <mxGeometry x="150" y="120" width="120" height="60" as="geometry" />
        </mxCell>
        <mxCell id="FBpaqkk6B_h8Nh0KUtV6-42" value="123123" style="shape=process;whiteSpace=wrap;html=1;backgroundOutline=1;" parent="1" vertex="1">
          <mxGeometry x="160" y="130" width="120" height="60" as="geometry" />
        </mxCell>
        <mxCell id="FBpaqkk6B_h8Nh0KUtV6-43" value="123123" style="shape=process;whiteSpace=wrap;html=1;backgroundOutline=1;" parent="1" vertex="1">
          <mxGeometry x="170" y="140" width="120" height="60" as="geometry" />
        </mxCell>
        <mxCell id="FBpaqkk6B_h8Nh0KUtV6-44" value="123123" style="shape=process;whiteSpace=wrap;html=1;backgroundOutline=1;" parent="1" vertex="1">
          <mxGeometry x="180" y="150" width="120" height="60" as="geometry" />
        </mxCell>
        <mxCell id="FBpaqkk6B_h8Nh0KUtV6-45" value="123123" style="shape=process;whiteSpace=wrap;html=1;backgroundOutline=1;" parent="1" vertex="1">
          <mxGeometry x="190" y="160" width="120" height="60" as="geometry" />
        </mxCell>
        <mxCell id="FBpaqkk6B_h8Nh0KUtV6-46" value="123123" style="shape=process;whiteSpace=wrap;html=1;backgroundOutline=1;" parent="1" vertex="1">
          <mxGeometry x="200" y="170" width="120" height="60" as="geometry" />
        </mxCell>
        <mxCell id="FBpaqkk6B_h8Nh0KUtV6-47" value="123123" style="shape=process;whiteSpace=wrap;html=1;backgroundOutline=1;" parent="1" vertex="1">
          <mxGeometry x="210" y="180" width="120" height="60" as="geometry" />
        </mxCell>
        <mxCell id="FBpaqkk6B_h8Nh0KUtV6-48" value="123123" style="shape=process;whiteSpace=wrap;html=1;backgroundOutline=1;" parent="1" vertex="1">
          <mxGeometry x="220" y="190" width="120" height="60" as="geometry" />
        </mxCell>
        <mxCell id="FBpaqkk6B_h8Nh0KUtV6-49" value="123123" style="shape=process;whiteSpace=wrap;html=1;backgroundOutline=1;" parent="1" vertex="1">
          <mxGeometry x="230" y="200" width="120" height="60" as="geometry" />
        </mxCell>
        <mxCell id="FBpaqkk6B_h8Nh0KUtV6-50" value="123123" style="shape=process;whiteSpace=wrap;html=1;backgroundOutline=1;" parent="1" vertex="1">
          <mxGeometry x="240" y="210" width="120" height="60" as="geometry" />
        </mxCell>
        <mxCell id="FBpaqkk6B_h8Nh0KUtV6-51" value="123123" style="shape=process;whiteSpace=wrap;html=1;backgroundOutline=1;" parent="1" vertex="1">
          <mxGeometry x="250" y="220" width="120" height="60" as="geometry" />
        </mxCell>
        <mxCell id="FBpaqkk6B_h8Nh0KUtV6-52" value="123123" style="shape=process;whiteSpace=wrap;html=1;backgroundOutline=1;" parent="1" vertex="1">
          <mxGeometry x="260" y="230" width="120" height="60" as="geometry" />
        </mxCell>
        <mxCell id="FBpaqkk6B_h8Nh0KUtV6-53" value="123123" style="shape=process;whiteSpace=wrap;html=1;backgroundOutline=1;" parent="1" vertex="1">
          <mxGeometry x="270" y="240" width="120" height="60" as="geometry" />
        </mxCell>
        <mxCell id="FBpaqkk6B_h8Nh0KUtV6-54" value="123123" style="shape=process;whiteSpace=wrap;html=1;backgroundOutline=1;" parent="1" vertex="1">
          <mxGeometry x="280" y="250" width="120" height="60" as="geometry" />
        </mxCell>
        <mxCell id="FBpaqkk6B_h8Nh0KUtV6-55" value="123123" style="shape=process;whiteSpace=wrap;html=1;backgroundOutline=1;" parent="1" vertex="1">
          <mxGeometry x="290" y="260" width="120" height="60" as="geometry" />
        </mxCell>
        <mxCell id="FBpaqkk6B_h8Nh0KUtV6-56" value="123123" style="shape=process;whiteSpace=wrap;html=1;backgroundOutline=1;" parent="1" vertex="1">
          <mxGeometry x="300" y="270" width="120" height="60" as="geometry" />
        </mxCell>
        <mxCell id="FBpaqkk6B_h8Nh0KUtV6-57" value="123123" style="shape=process;whiteSpace=wrap;html=1;backgroundOutline=1;" parent="1" vertex="1">
          <mxGeometry x="310" y="280" width="120" height="60" as="geometry" />
        </mxCell>
        <mxCell id="FBpaqkk6B_h8Nh0KUtV6-58" value="123123" style="shape=process;whiteSpace=wrap;html=1;backgroundOutline=1;" parent="1" vertex="1">
          <mxGeometry x="320" y="290" width="120" height="60" as="geometry" />
        </mxCell>
        <mxCell id="FBpaqkk6B_h8Nh0KUtV6-59" value="123123" style="shape=process;whiteSpace=wrap;html=1;backgroundOutline=1;" parent="1" vertex="1">
          <mxGeometry x="330" y="300" width="120" height="60" as="geometry" />
        </mxCell>
        <mxCell id="FBpaqkk6B_h8Nh0KUtV6-60" value="123123" style="shape=process;whiteSpace=wrap;html=1;backgroundOutline=1;" parent="1" vertex="1">
          <mxGeometry x="340" y="310" width="120" height="60" as="geometry" />
        </mxCell>
        <mxCell id="FBpaqkk6B_h8Nh0KUtV6-61" value="123123" style="shape=process;whiteSpace=wrap;html=1;backgroundOutline=1;" parent="1" vertex="1">
          <mxGeometry x="350" y="320" width="120" height="60" as="geometry" />
        </mxCell>
        <mxCell id="FBpaqkk6B_h8Nh0KUtV6-62" value="123123" style="shape=process;whiteSpace=wrap;html=1;backgroundOutline=1;" parent="1" vertex="1">
          <mxGeometry x="360" y="330" width="120" height="60" as="geometry" />
        </mxCell>
        <mxCell id="FBpaqkk6B_h8Nh0KUtV6-63" value="123123" style="shape=process;whiteSpace=wrap;html=1;backgroundOutline=1;" parent="1" vertex="1">
          <mxGeometry x="370" y="340" width="120" height="60" as="geometry" />
        </mxCell>
        <mxCell id="FBpaqkk6B_h8Nh0KUtV6-64" value="123123" style="shape=process;whiteSpace=wrap;html=1;backgroundOutline=1;" parent="1" vertex="1">
          <mxGeometry x="380" y="350" width="120" height="60" as="geometry" />
        </mxCell>
        <mxCell id="FBpaqkk6B_h8Nh0KUtV6-65" value="123123" style="shape=process;whiteSpace=wrap;html=1;backgroundOutline=1;" parent="1" vertex="1">
          <mxGeometry x="390" y="360" width="120" height="60" as="geometry" />
        </mxCell>
        <mxCell id="FBpaqkk6B_h8Nh0KUtV6-66" value="123123" style="shape=process;whiteSpace=wrap;html=1;backgroundOutline=1;" parent="1" vertex="1">
          <mxGeometry x="400" y="370" width="120" height="60" as="geometry" />
        </mxCell>
        <mxCell id="FBpaqkk6B_h8Nh0KUtV6-67" value="123123" style="shape=process;whiteSpace=wrap;html=1;backgroundOutline=1;" parent="1" vertex="1">
          <mxGeometry x="410" y="380" width="120" height="60" as="geometry" />
        </mxCell>
      </root>
    </mxGraphModel>
  </diagram>
</mxfile>
